<svg width="512" height="512" viewBox="0 0 512 512" fill="none" xmlns="http://www.w3.org/2000/svg">
<path d="M289.099 289.099L222.901 222.901" stroke="black" stroke-width="26.67" stroke-linecap="round" stroke-linejoin="round"/>
<path d="M347.808 386.81C342.637 391.984 335.621 394.892 328.306 394.893C320.99 394.894 313.974 391.989 308.8 386.817C303.626 381.645 300.719 374.63 300.717 367.314C300.716 359.999 303.621 352.983 308.793 347.808L284.424 372.192C279.25 377.365 272.233 380.272 264.916 380.272C257.599 380.272 250.582 377.365 245.408 372.192C240.235 367.018 237.328 360.001 237.328 352.684C237.328 345.367 240.235 338.35 245.408 333.176L333.176 245.408C338.35 240.235 345.367 237.328 352.683 237.328C360.001 237.328 367.017 240.235 372.191 245.408C377.365 250.583 380.272 257.599 380.272 264.916C380.272 272.233 377.365 279.25 372.191 284.424L347.808 308.793C352.982 303.621 359.999 300.717 367.314 300.718C374.63 300.719 381.645 303.626 386.817 308.8C391.989 313.974 394.894 320.99 394.892 328.306C394.891 335.621 391.984 342.637 386.81 347.808L347.808 386.81Z" stroke="black" stroke-width="26.67" stroke-linecap="round" stroke-linejoin="round"/>
<path d="M387.017 387.016L367.709 367.709" stroke="black" stroke-width="26.67" stroke-linecap="round" stroke-linejoin="round"/>
<path d="M144.291 144.291L124.983 124.983" stroke="black" stroke-width="26.67" stroke-linecap="round" stroke-linejoin="round"/>
<path d="M178.824 266.591C173.65 271.766 166.633 274.672 159.317 274.672C151.999 274.672 144.983 271.766 139.809 266.591C134.635 261.418 131.728 254.401 131.728 247.084C131.728 239.767 134.635 232.75 139.809 227.576L164.192 203.207C161.63 205.768 158.589 207.799 155.242 209.185C151.895 210.571 148.308 211.283 144.686 211.282C137.371 211.281 130.355 208.374 125.183 203.2C122.622 200.638 120.591 197.597 119.206 194.251C117.82 190.904 117.107 187.317 117.108 183.695C117.109 176.379 120.016 169.364 125.19 164.191L164.192 125.19C169.363 120.017 176.379 117.109 183.694 117.107C187.317 117.107 190.904 117.82 194.25 119.205C197.597 120.591 200.639 122.622 203.2 125.183C205.762 127.744 207.794 130.785 209.181 134.131C210.568 137.477 211.282 141.063 211.283 144.686C211.283 148.308 210.57 151.895 209.185 155.242C207.799 158.588 205.768 161.63 203.207 164.191L227.576 139.809C232.75 134.635 239.767 131.729 247.084 131.729C254.401 131.729 261.418 134.635 266.592 139.809C271.765 144.982 274.672 152 274.672 159.316C274.672 166.633 271.765 173.65 266.592 178.824L178.824 266.591Z" stroke="black" stroke-width="26.67" stroke-linecap="round" stroke-linejoin="round"/>
</svg>
